# xmcd
#
# Track frame offsets: 
#        150
#        38111
#        65665
#        88252
#        115306
#        135031
#        153146
#        173626
#        210748
#        238614
#
# Disc length: 3455 seconds
#
# Revision: 0
# Processed by: cddbd v1.5.1PL0 Copyright (c) Steve Scherf et al.
# Submitted via: ExactAudioCopy v0.90b4
#
DISCID=7d0d7d0a
DTITLE=J.J. Cale - Gothic Theater July 7 2004 Disc 2
DYEAR=2004
DGENRE=Folk/Rock
TTITLE0=J.J. Cale - Call Me The Breeze
TTITLE1=J.J. Cale - Cocaine
TTITLE2=J.J. Cale - Cajun Moon
TTITLE3=J.J. Cale - After Midnight
TTITLE4=J.J. Cale - Crazy Mama
TTITLE5=J.J. Cale - Magnolia
TTITLE6=J.J. Cale - Ridin' Home
TTITLE7=J.J. Cale - Bringin It Back
TTITLE8=J.J. Cale - Humdinger
TTITLE9=J.J. Cale - Keep Rollin' On
EXTD=
EXTT0=
EXTT1=
EXTT2=
EXTT3=
EXTT4=
EXTT5=
EXTT6=
EXTT7=
EXTT8=
EXTT9=
PLAYORDER=
